<svg width="24" height="24" viewBox="0 0 24 24" fill="none" xmlns="http://www.w3.org/2000/svg">
  <path d="M6.5 8.5H14.5C17.5 8.5 19.5 10.8 19.8 13.6C20.1 16.2 18.5 18 16.8 18C15.5 18 15 17 14 15.5C13.4 14.6 12.8 14.3 12 14.3C11.2 14.3 10.6 14.6 10 15.5C9 17 8.5 18 7.2 18C5.5 18 3.9 16.2 4.2 13.6C4.5 10.8 6.5 8.5 6.5 8.5V8.5Z" stroke="#2D1B69" stroke-width="1.5" stroke-linecap="round" stroke-linejoin="round"/>
  <path d="M8 11V13M7 12H9" stroke="#2D1B69" stroke-width="1.4" stroke-linecap="round"/>
  <circle cx="16" cy="11.3" r="0.8" fill="#FF6B5B"/>
  <circle cx="16" cy="13.7" r="0.8" fill="#FF6B5B"/>
</svg>
